<?xml version="1.0" standalone="no"?>
<!DOCTYPE svg PUBLIC "-//W3C//DTD SVG 20010904//EN"
 "http://www.w3.org/TR/2001/REC-SVG-20010904/DTD/svg10.dtd">
<svg version="1.0" xmlns="http://www.w3.org/2000/svg"
 width="202.000000pt" height="199.000000pt" viewBox="0 0 202.000000 199.000000"
 preserveAspectRatio="xMidYMid meet">
<metadata>
Created by potrace 1.16, written by Peter Selinger 2001-2019
</metadata>
<g transform="translate(0.000000,199.000000) scale(0.100000,-0.100000)"
fill="#000000" stroke="none">
<path d="M762 1579 c-98 -12 -265 -60 -332 -97 l-25 -14 25 6 c136 29 347 36
460 17 64 -12 160 -41 170 -51 3 -4 22 -16 43 -29 20 -12 37 -26 37 -31 0 -15
-139 -138 -212 -187 -154 -104 -451 -257 -606 -313 -34 -13 -61 -25 -58 -27 9
-9 270 74 416 134 271 110 451 222 597 371 l82 83 -33 30 c-103 90 -334 135
-564 108z"/>
<path d="M1360 1223 c-89 -15 -270 -80 -270 -97 0 -2 24 2 53 10 84 24 270 29
350 10 70 -16 140 -47 152 -67 16 -25 -102 -121 -229 -188 -44 -22 -87 -47
-95 -55 -25 -22 -135 -75 -266 -127 -66 -27 -110 -49 -99 -49 45 0 348 100
504 167 108 46 377 265 367 297 -7 22 -112 75 -178 90 -63 15 -226 20 -289 9z"/>
<path d="M1305 860 c-3 -6 1 -7 9 -4 18 7 21 14 7 14 -6 0 -13 -4 -16 -10z"/>
<path d="M1445 800 c3 -5 8 -10 11 -10 2 0 4 5 4 10 0 6 -5 10 -11 10 -5 0 -7
-4 -4 -10z"/>
<path d="M1555 800 c-3 -5 -2 -10 4 -10 5 0 13 5 16 10 3 6 2 10 -4 10 -5 0
-13 -4 -16 -10z"/>
<path d="M1520 730 l0 -30 20 20 c11 11 20 25 20 30 0 6 -9 10 -20 10 -16 0
-20 -7 -20 -30z"/>
<path d="M1460 680 c0 -5 -10 -10 -22 -10 -21 -1 -21 -2 -5 -11 13 -8 22 -7
33 1 16 14 19 30 4 30 -5 0 -10 -4 -10 -10z"/>
<path d="M1336 586 c10 -8 21 -12 24 -10 5 6 -21 24 -34 24 -6 0 -1 -6 10 -14z"/>
<path d="M1235 540 c3 -5 12 -7 20 -3 21 7 19 13 -6 13 -11 0 -18 -4 -14 -10z"/>
<path d="M1160 505 c0 -9 9 -15 21 -15 18 0 19 2 9 15 -7 8 -16 15 -21 15 -5
0 -9 -7 -9 -15z"/>
<path d="M1090 470 c-23 -7 -23 -8 -3 -9 12 -1 25 4 28 9 3 6 5 10 3 9 -2 -1
-14 -5 -28 -9z"/>
</g>
</svg>
